<?xml version="1.0" standalone="no"?>
<!DOCTYPE svg PUBLIC "-//W3C//DTD SVG 20010904//EN"
 "http://www.w3.org/TR/2001/REC-SVG-20010904/DTD/svg10.dtd">
<svg version="1.0" xmlns="http://www.w3.org/2000/svg"
 width="282.000000pt" height="282.000000pt" viewBox="0 0 282.000000 282.000000"
 preserveAspectRatio="xMidYMid meet">
<metadata>
Created by potrace 1.14, written by Peter Selinger 2001-2017
</metadata>
<g transform="translate(0.000000,282.000000) scale(0.100000,-0.100000)"
fill="#000000" stroke="none">
<path d="M1567 2800 c-20 -11 -48 -38 -62 -60 -23 -37 -26 -38 -57 -29 -18 5
-71 9 -118 9 -101 0 -156 -22 -204 -83 -24 -30 -30 -46 -29 -85 1 -26 8 -64
17 -84 9 -21 16 -42 16 -48 0 -5 -21 -21 -47 -34 -76 -38 -188 -122 -270 -199
-259 -246 -414 -573 -430 -905 -5 -111 -7 -121 -22 -108 -50 45 -245 116 -317
116 -41 0 -44 -10 -44 -129 l0 -98 127 -7 c71 -4 147 -11 171 -14 l43 -7 -78
-52 c-80 -53 -232 -187 -223 -196 3 -2 42 -23 86 -45 l81 -41 93 110 c84 100
110 120 110 85 0 -28 54 -174 92 -251 66 -133 126 -215 237 -325 207 -205 446
-305 752 -317 599 -24 1086 374 1190 973 l11 66 64 -7 64 -7 0 69 0 69 -58 66
-59 65 -12 94 c-57 425 -224 748 -495 953 -96 73 -121 102 -208 236 -114 175
-186 230 -313 237 -56 3 -77 -1 -108 -17z m25 -780 c81 -30 146 -100 169 -184
7 -25 6 -28 -4 -15 -16 21 -51 39 -76 39 -31 0 -71 -41 -77 -81 -8 -50 33 -99
82 -99 41 0 84 37 85 72 l0 23 11 -22 c14 -29 -15 -70 -79 -112 -66 -44 -132
-61 -237 -61 -95 0 -182 17 -274 55 l-57 24 2 60 c2 78 24 143 68 203 85 116
236 155 387 98z m713 -55 c45 -18 92 -62 122 -112 26 -45 53 -136 53 -183 l0
-25 -127 3 c-159 3 -292 17 -361 37 l-52 16 0 42 c1 103 90 212 195 238 38 9
131 0 170 -16z"/>
<path d="M2275 1825 c-18 -17 -25 -35 -25 -62 1 -114 148 -123 166 -11 5 27 1
40 -21 66 -34 41 -84 44 -120 7z"/>
</g>
</svg>
